<?xml version="1.0" encoding="utf-8"?>
<!-- Generator: Adobe Illustrator 23.0.3, SVG Export Plug-In . SVG Version: 6.00 Build 0)  -->
<svg version="1.1" id="Camada_1" xmlns="http://www.w3.org/2000/svg" xmlns:xlink="http://www.w3.org/1999/xlink" x="0px" y="0px"
	 viewBox="0 0 35 60" style="enable-background:new 0 0 35 60;" xml:space="preserve">
<style type="text/css">
	.st0{fill:#AF072A;}
	.st1{opacity:0.25;fill:#733C1D;enable-background:new    ;}
	.st2{opacity:0.2;fill:#733C1D;enable-background:new    ;}
	.st3{fill:#F2F2EB;}
	.st4{fill:none;}
</style>
<g>
	<g>
		<circle class="st0" cx="17.5" cy="42.4" r="16.1"/>
		<g>
			<path class="st0" d="M17.5,59.9C7.8,59.9,0,52.1,0,42.4s7.8-17.5,17.5-17.5S35,32.8,35,42.4S27.1,59.9,17.5,59.9z M17.5,25.4
				c-9.4,0-17,7.6-17,17s7.6,17,17,17s17-7.6,17-17S26.9,25.4,17.5,25.4z"/>
		</g>
		<path class="st1" d="M7.4,55c0.2,0.1,0.3,0.2,0.4,0.3C7.7,55.2,7.5,55.1,7.4,55L7.4,55z"/>
		<path class="st1" d="M9.1,56.2c-0.2-0.1-0.4-0.3-0.6-0.4C8.7,55.9,8.9,56.1,9.1,56.2z"/>
		<path class="st1" d="M10.5,56.9c-0.2-0.1-0.4-0.2-0.6-0.3C10.1,56.7,10.3,56.8,10.5,56.9z"/>
		<path class="st2" d="M8.5,55.8c-0.2-0.2-0.4-0.3-0.7-0.5C8,55.5,8.3,55.6,8.5,55.8z"/>
		<path class="st2" d="M11.3,57.3L11.3,57.3c-0.3-0.1-0.5-0.3-0.8-0.4C10.7,57.1,11,57.2,11.3,57.3z"/>
		<path class="st2" d="M9.9,56.6c-0.3-0.1-0.5-0.3-0.8-0.5C9.4,56.3,9.6,56.5,9.9,56.6z"/>
		<rect x="8.2" y="41.2" class="st3" width="19" height="2"/>
		<rect x="16.7" y="32.7" class="st3" width="2" height="19"/>
		<polygon class="st4" points="16.7,43.2 16.7,45.4 16.7,51.7 14.4,54 16.8,51.7 16.8,43.2 		"/>
		<path class="st2" d="M5.9,53.6c-0.4-0.4-0.8-0.9-1.1-1.3C5.1,52.7,5.5,53.2,5.9,53.6z"/>
		<path class="st2" d="M4.6,52c-0.4-0.5-0.7-1-1-1.5C3.9,51.1,4.2,51.6,4.6,52z"/>
		<path class="st2" d="M11.3,57.3l3.2-3.3L11.3,57.3C11.2,57.3,11.2,57.3,11.3,57.3z"/>
		<path class="st2" d="M7.4,55c-0.5-0.4-0.9-0.8-1.3-1.2C6.5,54.2,6.9,54.6,7.4,55z"/>
		<path class="st1" d="M14.4,54l2.3-2.3L14.4,54z"/>
		<path class="st1" d="M6.1,53.8c-0.1-0.1-0.1-0.1-0.2-0.2C5.9,53.6,6,53.7,6.1,53.8z"/>
		<path class="st1" d="M3.6,50.6C3.6,50.5,3.6,50.5,3.6,50.6C3.6,50.5,3.6,50.5,3.6,50.6z"/>
		<path class="st1" d="M11.2,57.3L11.2,57.3c-0.2-0.1-0.5-0.2-0.7-0.3C10.7,57,10.9,57.2,11.2,57.3z"/>
		<path class="st1" d="M4.8,52.3c-0.1-0.1-0.1-0.1-0.2-0.2C4.6,52.1,4.7,52.2,4.8,52.3z"/>
	</g>
	<rect x="17.4" y="0.1" class="st0" width="1.5" height="25"/>
</g>
</svg>
