<?xml version="1.0" encoding="utf-8"?>
<!-- Generator: Adobe Illustrator 23.0.3, SVG Export Plug-In . SVG Version: 6.00 Build 0)  -->
<svg version="1.1" id="Camada_1" xmlns="http://www.w3.org/2000/svg" xmlns:xlink="http://www.w3.org/1999/xlink" x="0px" y="0px"
	 viewBox="0 0 35 60" style="enable-background:new 0 0 35 60;" xml:space="preserve">
<style type="text/css">
	.st0{fill:#733C1D;}
	.st1{opacity:0.25;fill:#733C1D;}
	.st2{opacity:0.2;fill:#733C1D;}
	.st3{fill:#F2F2EB;}
	.st4{fill:none;}
	.st5{fill:#D95551;}
	.st6{fill:#BF3945;}
	.st7{fill:#F22F1D;}
	.st8{fill:#F28177;}
	.st9{fill:#FF4858;}
	.st10{fill:#F2594B;}
</style>
<g>
	<g>
		<circle class="st9" cx="17.5" cy="42.43" r="16.12"/>
		<g>
			<path class="st9" d="M17.5,59.93C7.85,59.93,0,52.08,0,42.43s7.85-17.5,17.5-17.5c9.65,0,17.5,7.85,17.5,17.5
				S27.15,59.93,17.5,59.93z M17.5,25.39c-9.4,0-17.04,7.64-17.04,17.04S8.1,59.47,17.5,59.47s17.04-7.64,17.04-17.04
				S26.9,25.39,17.5,25.39z"/>
		</g>
		<path class="st1" d="M7.36,54.97c0.15,0.12,0.3,0.22,0.45,0.33c-0.15-0.11-0.3-0.23-0.44-0.34L7.36,54.97z"/>
		<path class="st1" d="M9.12,56.18c-0.22-0.13-0.44-0.26-0.65-0.4C8.68,55.92,8.9,56.05,9.12,56.18z"/>
		<path class="st1" d="M10.48,56.93c-0.2-0.1-0.4-0.19-0.6-0.29C10.07,56.74,10.28,56.83,10.48,56.93z"/>
		<path class="st2" d="M8.47,55.78c-0.22-0.15-0.44-0.32-0.66-0.48C8.03,55.46,8.25,55.63,8.47,55.78z"/>
		<path class="st2" d="M11.26,57.3L11.26,57.3c-0.26-0.12-0.52-0.25-0.78-0.38C10.74,57.05,10.99,57.19,11.26,57.3z"/>
		<path class="st2" d="M9.88,56.63c-0.26-0.14-0.51-0.3-0.76-0.45C9.37,56.34,9.62,56.49,9.88,56.63z"/>
		
			<rect x="16.71" y="32.7" transform="matrix(6.123234e-17 -1 1 6.123234e-17 -24.4888 59.9113)" class="st3" width="2" height="19"/>
		<rect x="16.71" y="32.7" class="st3" width="2" height="19"/>
		<polygon class="st4" points="16.71,43.2 16.71,45.37 16.71,51.7 14.43,54.04 16.75,51.74 16.75,43.2 		"/>
		<path class="st2" d="M5.88,53.56c-0.4-0.42-0.78-0.86-1.13-1.31C5.1,52.71,5.48,53.15,5.88,53.56z"/>
		<path class="st2" d="M4.59,52.04c-0.36-0.48-0.69-0.97-1-1.49C3.9,51.07,4.23,51.57,4.59,52.04z"/>
		<path class="st2" d="M11.26,57.29l3.17-3.25l-3.24,3.22C11.22,57.27,11.24,57.28,11.26,57.29z"/>
		<path class="st2" d="M7.38,54.95c-0.46-0.38-0.9-0.78-1.32-1.21C6.48,54.17,6.91,54.58,7.38,54.95z"/>
		<polygon class="st1" points="14.43,54.04 16.71,51.7 14.43,54.04 		"/>
		<path class="st1" d="M6.06,53.75C6,53.69,5.94,53.63,5.88,53.56C5.94,53.63,6,53.69,6.06,53.75z"/>
		<path class="st1" d="M3.59,50.55c-0.01-0.02-0.03-0.05-0.04-0.07C3.57,50.5,3.58,50.53,3.59,50.55z"/>
		<path class="st1" d="M11.19,57.26L11.19,57.26c-0.24-0.1-0.48-0.22-0.71-0.33C10.72,57.04,10.95,57.16,11.19,57.26z"/>
		<path class="st1" d="M4.75,52.25c-0.05-0.07-0.1-0.14-0.16-0.21C4.64,52.11,4.69,52.18,4.75,52.25z"/>
	</g>
	<rect x="16.96" y="0.07" class="st9" width="1.5" height="25"/>
</g>
</svg>
